<svg xmlns="http://www.w3.org/2000/svg" xmlns:xlink="http://www.w3.org/1999/xlink" width="500" zoomAndPan="magnify" viewBox="0 0 375 374.999991" height="500" preserveAspectRatio="xMidYMid meet" version="1.0"><defs><g/></defs><path fill="#ffffff" d="M 76.9375 156.453125 L 282.019531 122.425781 C 285.992188 121.765625 290.0625 122.710938 293.335938 125.054688 C 296.609375 127.394531 298.820312 130.941406 299.480469 134.914062 L 310.539062 201.570312 C 311.199219 205.542969 310.253906 209.613281 307.910156 212.886719 C 305.570312 216.160156 302.023438 218.371094 298.050781 219.03125 L 92.96875 253.058594 C 84.699219 254.429688 76.882812 248.839844 75.507812 240.570312 L 64.449219 173.910156 C 63.078125 165.640625 68.667969 157.824219 76.9375 156.453125 Z M 76.9375 156.453125 " fill-opacity="1" fill-rule="nonzero"/><g fill="#000000" fill-opacity="1"><g transform="translate(103.320328, 220.439628)"><g><path d="M 52.140625 -59.171875 C 53.578125 -59.410156 54.363281 -59.128906 54.5 -58.328125 C 54.59375 -57.710938 54.253906 -57.0625 53.484375 -56.375 C 52.578125 -55.28125 52.175781 -53.726562 52.28125 -51.71875 C 52.125 -46.976562 51.976562 -42.945312 51.84375 -39.625 C 51.707031 -36.300781 51.507812 -32.988281 51.25 -29.6875 C 51 -26.382812 50.59375 -22.96875 50.03125 -19.4375 C 49.476562 -15.90625 48.722656 -12.472656 47.765625 -9.140625 C 47.503906 -8.140625 47.226562 -7.351562 46.9375 -6.78125 C 46.65625 -6.21875 46.1875 -5.882812 45.53125 -5.78125 C 45.113281 -5.707031 44.617188 -5.910156 44.046875 -6.390625 C 43.472656 -6.878906 42.921875 -7.472656 42.390625 -8.171875 C 41.859375 -8.867188 41.421875 -9.453125 41.078125 -9.921875 C 38.242188 -13.796875 35.648438 -17.769531 33.296875 -21.84375 C 30.953125 -25.925781 28.421875 -30.671875 25.703125 -36.078125 C 25.054688 -29.109375 24.09375 -21.789062 22.8125 -14.125 C 22.070312 -10.019531 21.125 -6.5625 19.96875 -3.75 C 19.863281 -3.53125 19.703125 -3.195312 19.484375 -2.75 C 19.273438 -2.300781 19.039062 -1.941406 18.78125 -1.671875 C 18.519531 -1.398438 18.207031 -1.234375 17.84375 -1.171875 C 17.550781 -1.128906 17.273438 -1.175781 17.015625 -1.3125 C 16.753906 -1.457031 16.5 -1.671875 16.25 -1.953125 C 16.007812 -2.242188 15.78125 -2.53125 15.5625 -2.8125 C 13.476562 -5.613281 11.367188 -8.992188 9.234375 -12.953125 C 7.109375 -16.921875 5.144531 -20.960938 3.34375 -25.078125 C 1.550781 -29.191406 -0.0507812 -33.171875 -1.46875 -37.015625 L -3.578125 -43.03125 C -4.023438 -44.21875 -4.367188 -44.972656 -4.609375 -45.296875 C -4.847656 -45.628906 -5.429688 -45.976562 -6.359375 -46.34375 C -7.253906 -46.84375 -7.738281 -47.3125 -7.8125 -47.75 C -7.96875 -48.707031 -7.328125 -49.304688 -5.890625 -49.546875 L 3.109375 -51.046875 C 4.617188 -51.296875 5.453125 -50.941406 5.609375 -49.984375 C 5.691406 -49.492188 5.3125 -48.960938 4.46875 -48.390625 C 3.632812 -47.816406 3.03125 -47.304688 2.65625 -46.859375 C 2.289062 -46.421875 2.203125 -45.648438 2.390625 -44.546875 C 2.953125 -41.171875 4.984375 -35.617188 8.484375 -27.890625 C 10.503906 -23.285156 13.523438 -17.222656 17.546875 -9.703125 C 19.429688 -18.015625 20.609375 -24.257812 21.078125 -28.4375 C 21.523438 -31.59375 21.878906 -35.175781 22.140625 -39.1875 C 22.410156 -43.195312 22.375 -46.222656 22.03125 -48.265625 C 21.894531 -49.054688 21.640625 -49.617188 21.265625 -49.953125 C 20.898438 -50.285156 20.363281 -50.550781 19.65625 -50.75 C 18.957031 -50.945312 18.476562 -51.117188 18.21875 -51.265625 C 17.957031 -51.421875 17.789062 -51.742188 17.71875 -52.234375 C 17.65625 -52.578125 17.78125 -52.890625 18.09375 -53.171875 C 18.414062 -53.460938 18.757812 -53.640625 19.125 -53.703125 L 28 -55.171875 C 29.3125 -55.390625 30.039062 -55.054688 30.1875 -54.171875 C 30.28125 -53.628906 29.945312 -53.054688 29.1875 -52.453125 C 28.4375 -51.859375 27.890625 -51.34375 27.546875 -50.90625 C 27.210938 -50.476562 27.140625 -49.703125 27.328125 -48.578125 C 27.878906 -45.242188 30.488281 -39.113281 35.15625 -30.1875 C 38.644531 -23.394531 41.894531 -18.148438 44.90625 -14.453125 C 46.664062 -22.992188 47.6875 -31.734375 47.96875 -40.671875 C 48.207031 -47.367188 48.25 -51.1875 48.09375 -52.125 C 47.90625 -53.257812 47.570312 -53.953125 47.09375 -54.203125 C 46.625 -54.453125 45.820312 -54.707031 44.6875 -54.96875 C 43.550781 -55.238281 42.9375 -55.671875 42.84375 -56.265625 C 42.695312 -57.148438 43.160156 -57.679688 44.234375 -57.859375 Z M 52.140625 -59.171875 "/></g></g></g><g fill="#000000" fill-opacity="1"><g transform="translate(166.438876, 209.966521)"><g><path d="M 32.875 -21.6875 C 33.664062 -16.925781 32.679688 -12.664062 29.921875 -8.90625 C 27.171875 -5.15625 23.414062 -2.882812 18.65625 -2.09375 C 15.695312 -1.601562 12.828125 -1.894531 10.046875 -2.96875 C 7.273438 -4.050781 4.941406 -5.742188 3.046875 -8.046875 C 1.148438 -10.347656 -0.0390625 -12.976562 -0.53125 -15.9375 C -1.007812 -18.863281 -0.695312 -21.742188 0.40625 -24.578125 C 1.507812 -27.421875 3.234375 -29.816406 5.578125 -31.765625 C 7.921875 -33.710938 10.5625 -34.925781 13.5 -35.40625 C 16.488281 -35.90625 19.382812 -35.628906 22.1875 -34.578125 C 24.988281 -33.523438 27.347656 -31.851562 29.265625 -29.5625 C 31.179688 -27.28125 32.382812 -24.65625 32.875 -21.6875 Z M 26.1875 -11.140625 C 27.65625 -13.921875 28.082031 -17.175781 27.46875 -20.90625 C 26.863281 -24.570312 25.359375 -27.488281 22.953125 -29.65625 C 20.546875 -31.832031 17.546875 -32.625 13.953125 -32.03125 C 11.484375 -31.625 9.5 -30.644531 8 -29.09375 C 6.507812 -27.539062 5.523438 -25.664062 5.046875 -23.46875 C 4.566406 -21.28125 4.53125 -18.960938 4.9375 -16.515625 C 5.539062 -12.878906 7.019531 -9.960938 9.375 -7.765625 C 11.738281 -5.566406 14.703125 -4.765625 18.265625 -5.359375 C 21.835938 -5.953125 24.476562 -7.878906 26.1875 -11.140625 Z M 26.1875 -11.140625 "/></g></g></g><g fill="#000000" fill-opacity="1"><g transform="translate(203.998119, 203.734408)"><g><path d="M 10.234375 -7.375 C 10.378906 -6.5 10.648438 -5.953125 11.046875 -5.734375 C 11.441406 -5.523438 11.992188 -5.351562 12.703125 -5.21875 C 13.566406 -4.9375 14.046875 -4.535156 14.140625 -4.015625 C 14.316406 -2.929688 13.644531 -2.265625 12.125 -2.015625 L 4.96875 -0.828125 C 3.457031 -0.578125 2.613281 -0.992188 2.4375 -2.078125 C 2.34375 -2.628906 2.628906 -3.117188 3.296875 -3.546875 C 3.960938 -3.878906 4.472656 -4.226562 4.828125 -4.59375 C 5.191406 -4.957031 5.296875 -5.597656 5.140625 -6.515625 L 2.46875 -22.640625 C 2.082031 -24.953125 0.875 -26.4375 -1.15625 -27.09375 C -2.289062 -27.25 -2.910156 -27.625 -3.015625 -28.21875 C -3.117188 -28.832031 -2.628906 -29.691406 -1.546875 -30.796875 C -0.0664062 -32.453125 1.039062 -33.34375 1.78125 -33.46875 C 2.914062 -33.65625 3.84375 -32.992188 4.5625 -31.484375 C 5.28125 -29.984375 6.0625 -27.988281 6.90625 -25.5 C 7.363281 -27.613281 8.300781 -29.75 9.71875 -31.90625 C 11.132812 -34.0625 12.71875 -35.28125 14.46875 -35.5625 C 16.976562 -35.988281 18.460938 -34.820312 18.921875 -32.0625 C 19.191406 -30.414062 18.832031 -29.507812 17.84375 -29.34375 C 17.46875 -29.28125 16.773438 -29.398438 15.765625 -29.703125 C 14.765625 -30.015625 14.003906 -30.128906 13.484375 -30.046875 C 11.878906 -29.773438 10.492188 -28.097656 9.328125 -25.015625 C 8.359375 -22.773438 8.09375 -20.320312 8.53125 -17.65625 Z M 10.234375 -7.375 "/></g></g></g><g fill="#000000" fill-opacity="1"><g transform="translate(228.130133, 199.730242)"><g><path d="M -2.265625 -44.46875 C -2.484375 -45.75 -3.425781 -46.507812 -5.09375 -46.75 C -5.84375 -46.8125 -6.257812 -47.085938 -6.34375 -47.578125 C -6.375 -47.796875 -6.335938 -48.003906 -6.234375 -48.203125 C -6.128906 -48.398438 -5.945312 -48.59375 -5.6875 -48.78125 C -5.4375 -48.96875 -5.257812 -49.101562 -5.15625 -49.1875 C -4.519531 -49.695312 -3.617188 -50.300781 -2.453125 -51 C -1.285156 -51.707031 -0.414062 -52.109375 0.15625 -52.203125 C 1.070312 -52.359375 1.671875 -51.570312 1.953125 -49.84375 L 8.59375 -9.875 C 8.863281 -8.21875 9.171875 -7.046875 9.515625 -6.359375 C 9.804688 -5.648438 10.207031 -5.238281 10.71875 -5.125 L 11.53125 -4.921875 C 12.394531 -4.628906 12.867188 -4.222656 12.953125 -3.703125 C 13.066406 -3.035156 13.019531 -2.597656 12.8125 -2.390625 C 12.601562 -2.179688 12.117188 -2.015625 11.359375 -1.890625 L 3.578125 -0.59375 C 2.421875 -0.40625 1.757812 -0.816406 1.59375 -1.828125 C 1.507812 -2.328125 1.789062 -2.851562 2.4375 -3.40625 L 3.546875 -4.15625 C 4.035156 -4.664062 4.054688 -6.296875 3.609375 -9.046875 Z M -2.265625 -44.46875 "/></g></g></g><g fill="#000000" fill-opacity="1"><g transform="translate(242.852514, 197.287393)"><g><path d="M 17.65625 -48.40625 C 17.539062 -49.0625 17.296875 -49.460938 16.921875 -49.609375 C 16.546875 -49.765625 15.882812 -49.921875 14.9375 -50.078125 C 14.15625 -50.335938 13.738281 -50.644531 13.6875 -51 C 13.613281 -51.425781 13.96875 -51.960938 14.75 -52.609375 C 17.570312 -54.421875 19.375 -55.390625 20.15625 -55.515625 C 21.175781 -55.691406 21.828125 -54.914062 22.109375 -53.1875 L 29.234375 -10.3125 C 29.378906 -9.40625 29.878906 -8.816406 30.734375 -8.546875 L 31.546875 -8.234375 C 32.410156 -7.972656 32.890625 -7.570312 32.984375 -7.03125 C 33.085938 -6.394531 32.976562 -5.953125 32.65625 -5.703125 C 32.332031 -5.460938 31.660156 -5.253906 30.640625 -5.078125 L 26.40625 -4.375 C 25.769531 -4.269531 25.222656 -5.59375 24.765625 -8.34375 C 22.597656 -4.5 19.488281 -2.238281 15.4375 -1.5625 C 12.570312 -1.09375 9.925781 -1.40625 7.5 -2.5 C 5.082031 -3.59375 3.09375 -5.265625 1.53125 -7.515625 C -0.03125 -9.765625 -1.046875 -12.289062 -1.515625 -15.09375 C -2.003906 -18.082031 -1.835938 -21.023438 -1.015625 -23.921875 C -0.191406 -26.816406 1.265625 -29.257812 3.359375 -31.25 C 5.460938 -33.25 8.046875 -34.503906 11.109375 -35.015625 C 13.835938 -35.460938 16.847656 -34.945312 20.140625 -33.46875 Z M 20.671875 -30.234375 C 18.691406 -30.984375 17.140625 -31.476562 16.015625 -31.71875 C 14.898438 -31.96875 13.554688 -31.960938 11.984375 -31.703125 C 8.710938 -31.160156 6.363281 -29.40625 4.9375 -26.4375 C 3.519531 -23.46875 3.09375 -20.269531 3.65625 -16.84375 C 4.257812 -13.238281 5.613281 -10.3125 7.71875 -8.0625 C 9.832031 -5.820312 12.625 -4.988281 16.09375 -5.5625 C 18.976562 -6.039062 21.203125 -7.375 22.765625 -9.5625 C 23.503906 -10.488281 23.734375 -11.785156 23.453125 -13.453125 Z M 20.671875 -30.234375 "/></g></g></g><path fill="#01b695" d="M 55.394531 95.050781 L 176.628906 74.933594 C 183.738281 73.753906 190.453125 78.5625 191.632812 85.667969 L 195.90625 111.410156 C 197.085938 118.519531 192.277344 125.234375 185.171875 126.414062 L 63.9375 146.53125 C 56.828125 147.710938 50.109375 142.90625 48.929688 135.796875 L 44.660156 110.054688 C 43.480469 102.949219 48.285156 96.230469 55.394531 95.050781 Z M 55.394531 95.050781 " fill-opacity="1" fill-rule="nonzero"/><g fill="#000000" fill-opacity="1"><g transform="translate(71.011961, 126.130623)"><g><path d="M 12.097656 -20.082031 L 11.703125 -22.457031 L -1.105469 -20.332031 L 2.207031 -0.367188 L 4.863281 -0.808594 L 3.304688 -10.195312 L 12.75 -11.761719 L 12.367188 -14.082031 L 2.921875 -12.515625 L 1.945312 -18.394531 Z M 12.097656 -20.082031 "/></g></g></g><g fill="#000000" fill-opacity="1"><g transform="translate(87.186802, 123.446771)"><g><path d="M 16.316406 -2.707031 L 15.933594 -5.027344 L 4.394531 -3.113281 L 3.261719 -9.925781 L 12.992188 -11.539062 L 12.605469 -13.859375 L 2.878906 -12.246094 L 1.855469 -18.410156 L 13.054688 -20.269531 L 12.664062 -22.617188 L -1.078125 -20.335938 L 2.234375 -0.371094 Z M 16.316406 -2.707031 "/></g></g></g><g fill="#000000" fill-opacity="1"><g transform="translate(105.114848, 120.472015)"><g><path d="M 18.578125 -3.082031 L 11.542969 -10.808594 C 15.09375 -12.007812 15.730469 -14.640625 15.328125 -17.070312 C 14.660156 -21.085938 11.703125 -22.457031 7.886719 -21.824219 L -1.105469 -20.332031 L 2.207031 -0.367188 L 4.808594 -0.796875 L 3.398438 -9.28125 L 8.546875 -10.136719 L 15.410156 -2.558594 Z M 3.027344 -11.515625 L 1.859375 -18.554688 L 8.109375 -19.59375 C 10.65625 -20.015625 12.328125 -18.871094 12.699219 -16.636719 C 13.152344 -13.890625 11.203125 -12.871094 8.910156 -12.492188 Z M 3.027344 -11.515625 "/></g></g></g><g fill="#000000" fill-opacity="1"><g transform="translate(124.824366, 117.201663)"><g><path d="M 17.816406 -2.957031 L 14.503906 -22.921875 L 12.097656 -22.523438 C 12.203125 -21.898438 14.867188 -6.535156 14.867188 -6.535156 L 1.410156 -20.75 L -1.105469 -20.332031 L 2.207031 -0.367188 L 4.722656 -0.785156 C 4.65625 -1.179688 1.773438 -16.972656 1.773438 -16.972656 L 15.410156 -2.558594 Z M 17.816406 -2.957031 "/></g></g></g><g fill="#000000" fill-opacity="1"><g transform="translate(145.693267, 113.738937)"><g><path d="M -1.53125 -20.261719 L -1.015625 -17.148438 L 0.230469 -17.355469 C 0.472656 -15.886719 0.277344 -14.253906 0.0273438 -12.789062 L 1.355469 -13.011719 C 1.863281 -15.039062 1.851562 -17.21875 1.511719 -19.253906 L 1.269531 -20.726562 Z M -1.53125 -20.261719 "/></g></g></g><g fill="#000000" fill-opacity="1"><g transform="translate(153.017277, 112.523682)"><g><path d="M -0.015625 -6.566406 C 0.210938 -5.730469 0.953125 -2.832031 3.898438 -1.546875 C 6.214844 -0.539062 8.9375 -0.960938 9.585938 -1.066406 C 12.980469 -1.628906 14.609375 -3.003906 15.535156 -4.261719 C 16.835938 -6.046875 16.65625 -7.847656 16.523438 -8.640625 C 15.796875 -13.023438 11.488281 -13.238281 10.519531 -13.308594 L 6.726562 -13.582031 C 4.375 -13.742188 2.535156 -14.136719 2.21875 -16.058594 C 1.808594 -18.519531 4.355469 -19.636719 6.25 -19.953125 C 10.773438 -20.703125 11.910156 -17.695312 12.097656 -16.566406 L 14.757812 -17.179688 C 14.109375 -18.992188 13.417969 -20.359375 11.441406 -21.394531 C 9.625 -22.371094 7.660156 -22.308594 5.679688 -21.980469 C 4.71875 -21.820312 2.4375 -21.382812 0.777344 -19.480469 C -0.246094 -18.292969 -0.734375 -16.847656 -0.46875 -15.265625 C 0.0820312 -11.925781 2.839844 -10.902344 7.488281 -10.742188 L 9.355469 -10.675781 C 11.578125 -10.609375 13.324219 -10.230469 13.695312 -7.996094 C 14.25 -4.660156 11.046875 -3.460938 9.378906 -3.183594 C 3.835938 -2.265625 2.941406 -6.617188 2.78125 -7.40625 Z M -0.015625 -6.566406 "/></g></g></g><path fill="#eeb3e7" d="M 212.945312 247.699219 L 312.320312 231.210938 C 319.429688 230.03125 326.144531 234.835938 327.324219 241.945312 L 331.597656 267.683594 C 332.777344 274.792969 327.96875 281.511719 320.863281 282.691406 L 221.488281 299.179688 C 214.382812 300.359375 207.664062 295.550781 206.484375 288.445312 L 202.210938 262.703125 C 201.03125 255.59375 205.839844 248.878906 212.945312 247.699219 Z M 212.945312 247.699219 " fill-opacity="1" fill-rule="nonzero"/><g fill="#000000" fill-opacity="1"><g transform="translate(228.564354, 278.778339)"><g><path d="M 9.835938 -15.316406 L 7.519531 -14.933594 L 5.707031 -4.144531 L 0.476562 -13.765625 L -1.871094 -13.375 L 5.203125 -0.863281 L 7.238281 -1.203125 Z M 9.835938 -15.316406 "/></g></g></g><g fill="#000000" fill-opacity="1"><g transform="translate(241.770064, 276.587148)"><g><path d="M 10.09375 -1.675781 L 6.933594 -20.734375 L 5.039062 -20.421875 C 5.046875 -20.1875 5.042969 -19.347656 4.726562 -18.625 C 4.25 -17.472656 3.191406 -16.65625 0.734375 -16.25 L 1.023438 -14.496094 L 5.125 -15.175781 L 7.4375 -1.234375 Z M 10.09375 -1.675781 "/></g></g></g><g fill="#000000" fill-opacity="1"><g transform="translate(259.104282, 273.710924)"><g><path d="M 4.609375 -0.765625 L 4.078125 -3.960938 L 1.28125 -3.496094 L 1.808594 -0.300781 Z M 4.609375 -0.765625 "/></g></g></g><g fill="#000000" fill-opacity="1"><g transform="translate(266.428289, 272.495669)"><g><path d="M -0.179688 -9.675781 C 1.050781 -2.238281 5.34375 -0.710938 8.257812 -1.195312 C 12.753906 -1.941406 14.476562 -6.441406 13.535156 -12.125 C 12.53125 -18.175781 8.882812 -21.234375 5.011719 -20.589844 C 0.710938 -19.875 -1.117188 -15.300781 -0.179688 -9.675781 Z M 2.355469 -9.980469 C 1.757812 -13.570312 1.847656 -17.769531 5.464844 -18.371094 C 9.507812 -19.042969 10.722656 -13.316406 10.996094 -11.644531 C 11.4375 -8.988281 11.625 -4.019531 7.949219 -3.410156 C 5.035156 -2.925781 3.058594 -5.738281 2.355469 -9.980469 Z M 2.355469 -9.980469 "/></g></g></g><g fill="#000000" fill-opacity="1"><g transform="translate(283.762507, 269.619445)"><g><path d="M 4.609375 -0.765625 L 4.078125 -3.960938 L 1.28125 -3.496094 L 1.808594 -0.300781 Z M 4.609375 -0.765625 "/></g></g></g><g fill="#000000" fill-opacity="1"><g transform="translate(291.086517, 268.40419)"><g><path d="M -0.179688 -9.675781 C 1.050781 -2.238281 5.34375 -0.710938 8.257812 -1.195312 C 12.753906 -1.941406 14.476562 -6.441406 13.535156 -12.125 C 12.53125 -18.175781 8.882812 -21.234375 5.011719 -20.589844 C 0.710938 -19.875 -1.117188 -15.300781 -0.179688 -9.675781 Z M 2.355469 -9.980469 C 1.757812 -13.570312 1.847656 -17.769531 5.464844 -18.371094 C 9.507812 -19.042969 10.722656 -13.316406 10.996094 -11.644531 C 11.4375 -8.988281 11.625 -4.019531 7.949219 -3.410156 C 5.035156 -2.925781 3.058594 -5.738281 2.355469 -9.980469 Z M 2.355469 -9.980469 "/></g></g></g></svg>